<?xml version="1.0" encoding="utf-8"?>
<!-- Generator: Adobe Illustrator 16.0.0, SVG Export Plug-In . SVG Version: 6.00 Build 0)  -->
<!DOCTYPE svg PUBLIC "-//W3C//DTD SVG 1.1//EN" "http://www.w3.org/Graphics/SVG/1.1/DTD/svg11.dtd" [
	<!ENTITY ns_extend "http://ns.adobe.com/Extensibility/1.0/">
	<!ENTITY ns_ai "http://ns.adobe.com/AdobeIllustrator/10.0/">
	<!ENTITY ns_graphs "http://ns.adobe.com/Graphs/1.0/">
	<!ENTITY ns_vars "http://ns.adobe.com/Variables/1.0/">
	<!ENTITY ns_imrep "http://ns.adobe.com/ImageReplacement/1.0/">
	<!ENTITY ns_sfw "http://ns.adobe.com/SaveForWeb/1.0/">
	<!ENTITY ns_custom "http://ns.adobe.com/GenericCustomNamespace/1.0/">
	<!ENTITY ns_adobe_xpath "http://ns.adobe.com/XPath/1.0/">
]>
<svg version="1.1" xmlns:x="&ns_extend;" xmlns:i="&ns_ai;" xmlns:graph="&ns_graphs;"
	 xmlns="http://www.w3.org/2000/svg" xmlns:xlink="http://www.w3.org/1999/xlink" x="0px" y="0px" width="96px" height="96px"
	 viewBox="0 0 96 96" enable-background="new 0 0 96 96" xml:space="preserve">
<metadata>
	<sfw  xmlns="&ns_sfw;">
		<slices></slices>
		<sliceSourceBounds  width="83.25" height="83.296" x="2.875" y="3.666" bottomLeftOrigin="true"></sliceSourceBounds>
	</sfw>
</metadata>
<g id="Layer_4">
	<g>
		<linearGradient id="SVGID_1_" gradientUnits="userSpaceOnUse" x1="7.25" y1="48.2876" x2="88.75" y2="48.2876">
			<stop  offset="0" style="stop-color:#224096"/>
			<stop  offset="0.7685" style="stop-color:#4A6EB4"/>
		</linearGradient>
		<path opacity="0.3" fill="url(#SVGID_1_)" enable-background="new    " d="M48,7.538c-30.191,0-40.75,10.561-40.75,40.75
			c0,30.187,10.559,40.75,40.75,40.75s40.75-10.563,40.75-40.75C88.75,18.099,78.191,7.538,48,7.538z M48,88.273
			c-29.624,0-39.984-10.363-39.984-39.986C8.016,18.663,18.376,8.302,48,8.302c29.626,0,39.986,10.361,39.986,39.985
			C87.986,77.91,77.626,88.273,48,88.273z"/>
		
			<linearGradient id="SVGID_2_" gradientUnits="userSpaceOnUse" x1="799.5801" y1="-1887.522" x2="799.5801" y2="-1806.8282" gradientTransform="matrix(1 0 0 -1 -751.5801 -1799.7803)">
			<stop  offset="0" style="stop-color:#224096"/>
			<stop  offset="0.7685" style="stop-color:#4A6EB4"/>
		</linearGradient>
		<path fill="url(#SVGID_2_)" d="M88,48.288c0,29.632-10.363,40-40,40c-29.635,0-40-10.367-40-40c0-29.634,10.365-40,40-40
			C77.637,8.288,88,18.653,88,48.288z"/>
	</g>
</g>
<g id="Layer_2" display="none">
	<g display="inline">
		<linearGradient id="SVGID_3_" gradientUnits="userSpaceOnUse" x1="7.25" y1="48" x2="88.75" y2="48">
			<stop  offset="0" style="stop-color:#0045A3"/>
			<stop  offset="1" style="stop-color:#226DCB"/>
		</linearGradient>
		<path opacity="0.3" fill="url(#SVGID_3_)" enable-background="new    " d="M48,7.25C17.809,7.25,7.25,17.81,7.25,48
			c0,30.188,10.559,40.75,40.75,40.75c30.191,0,40.75-10.563,40.75-40.75C88.75,17.81,78.191,7.25,48,7.25z M48,87.986
			C18.376,87.986,8.015,77.623,8.015,48C8.015,18.375,18.376,8.014,48,8.014c29.626,0,39.986,10.361,39.986,39.986
			C87.986,77.623,77.626,87.986,48,87.986z"/>
		
			<linearGradient id="SVGID_4_" gradientUnits="userSpaceOnUse" x1="799.5801" y1="-1887.2349" x2="799.5801" y2="-1806.5402" gradientTransform="matrix(1 0 0 -1 -751.5801 -1799.7803)">
			<stop  offset="0" style="stop-color:#0045A3"/>
			<stop  offset="1" style="stop-color:#226DCB"/>
		</linearGradient>
		<path fill="url(#SVGID_4_)" d="M88,48c0,29.633-10.363,40-40,40C18.365,88,8,77.633,8,48C8,18.365,18.365,8,48,8
			C77.637,8,88,18.365,88,48z"/>
	</g>
</g>
<g id="Layer_3" display="none">
	<g display="inline">
		<linearGradient id="SVGID_5_" gradientUnits="userSpaceOnUse" x1="7.1724" y1="47.9775" x2="88.6719" y2="47.9775">
			<stop  offset="0" style="stop-color:#007594"/>
			<stop  offset="0.1925" style="stop-color:#1C8CA6"/>
			<stop  offset="0.4568" style="stop-color:#47B0C3"/>
			<stop  offset="0.8003" style="stop-color:#61C7D4"/>
			<stop  offset="0.9428" style="stop-color:#6BCFDB"/>
			<stop  offset="1" style="stop-color:#6BCFDB"/>
		</linearGradient>
		<path opacity="0.3" fill="url(#SVGID_5_)" enable-background="new    " d="M47.922,7.228c-30.191,0-40.75,10.561-40.75,40.75
			c0,30.188,10.559,40.75,40.75,40.75c30.191,0,40.75-10.563,40.75-40.75C88.672,17.788,78.113,7.228,47.922,7.228z M47.922,87.964
			c-29.624,0-39.984-10.363-39.984-39.986c0-29.625,10.36-39.986,39.984-39.986c29.626,0,39.986,10.361,39.986,39.986
			C87.908,77.601,77.549,87.964,47.922,87.964z"/>
		
			<linearGradient id="SVGID_6_" gradientUnits="userSpaceOnUse" x1="799.5029" y1="-1887.2124" x2="799.5029" y2="-1806.5177" gradientTransform="matrix(1 0 0 -1 -751.5801 -1799.7803)">
			<stop  offset="0" style="stop-color:#007594"/>
			<stop  offset="0.1925" style="stop-color:#1C8CA6"/>
			<stop  offset="0.4568" style="stop-color:#47B0C3"/>
			<stop  offset="0.8003" style="stop-color:#61C7D4"/>
			<stop  offset="0.9428" style="stop-color:#6BCFDB"/>
			<stop  offset="1" style="stop-color:#6BCFDB"/>
		</linearGradient>
		<path fill="url(#SVGID_6_)" d="M87.922,47.978c0,29.633-10.363,40-40,40c-29.635,0-40-10.367-40-40c0-29.635,10.365-40,40-40
			C77.559,7.978,87.922,18.343,87.922,47.978z"/>
	</g>
</g>
<g id="Layer_1">
	<g>
		<path opacity="0.1" enable-background="new    " d="M48,6.538c-30.839,0-41.625,10.738-41.625,41.44
			c0,30.7,10.786,41.439,41.625,41.439c30.84,0,41.625-10.739,41.625-41.439C89.625,17.276,78.84,6.538,48,6.538z M48,88.641
			c-30.26,0-40.844-10.539-40.844-40.663C7.156,17.851,17.74,7.315,48,7.315c30.264,0,40.844,10.536,40.844,40.663
			C88.844,78.102,78.264,88.641,48,88.641z"/>
	</g>
	<path opacity="0.3" fill="#FFFFFF" enable-background="new    " d="M48,9.875c29.318,0,39.768,10.156,39.988,39.063
		C87.992,48.623,88,48.318,88,48C88,18.365,77.637,8,48,8C18.365,8,8,18.365,8,48c0,0.318,0.008,0.623,0.011,0.938
		C8.232,20.031,18.684,9.875,48,9.875z"/>
	<path opacity="0.6" enable-background="new    " d="M47.923,87.959c-29.292,0-39.733-10.158-39.955-39.063
		c-0.003,0.313-0.011,0.619-0.011,0.938c0,29.633,10.356,40,39.965,40c29.609,0,39.965-10.367,39.965-40
		c0-0.318-0.009-0.623-0.012-0.938C87.654,77.801,77.216,87.959,47.923,87.959z"/>
</g>
<g id="Layer_5">
	<g id="Layer_5_1_">
		<polyline fill-opacity="0.07" points="18.353,62.847 76.409,62.847 76.495,75.633 18.353,75.633 		"/>
		<polyline fill-opacity="0.07" points="18.699,63.19 76.064,63.19 76.148,75.287 18.699,75.287 		"/>
		<polyline fill-opacity="0.07" points="19.044,63.537 75.723,63.537 75.8,74.94 19.044,74.94 		"/>
		<polyline fill-opacity="0.07" points="19.391,63.883 75.378,63.883 75.45,74.597 19.391,74.597 		"/>
		<polyline fill="#6D84B3" points="19.737,63.228 75.034,63.228 75.104,73.25 19.737,73.25 		"/>
		<path fill-opacity="0.07" d="M24.305,72.037V48.393h-6.261V37.329h6.261v-5.997c0-5.645,3.533-12.237,13.496-12.237
			c3.414,0,6.053,0.327,6.164,0.34l1.145,0.147l-0.265,10.354l-1.259-0.012c-0.02,0-2.631-0.025-5.428-0.025
			c-2.063,0-2.289,0.504-2.289,2.487v4.942h9.314l-0.525,11.064H35.87v23.646H24.305z"/>
		<path fill-opacity="0.07" d="M24.624,71.72V48.074h-6.261V37.646h6.261v-6.315c0-5.499,3.451-11.918,13.179-11.918
			c3.417,0,6.015,0.324,6.122,0.338l0.857,0.111l-0.246,9.752l-0.943-0.01c-0.021,0-2.643-0.024-5.432-0.024
			c-2.248,0-2.607,0.666-2.607,2.806v5.26h9.297l-0.493,10.428h-8.806V71.72H24.624L24.624,71.72z"/>
		<path fill-opacity="0.07" d="M24.943,71.401V47.754h-6.261v-9.789h6.261v-6.634c0-5.351,3.367-11.599,12.858-11.599
			c3.396,0,5.974,0.321,6.082,0.335l0.57,0.074l-0.231,9.151l-0.627-0.006c-0.021,0-2.63-0.025-5.437-0.025
			c-2.52,0-2.928,0.921-2.928,3.124v5.58h9.283l-0.463,9.789h-8.82v23.646H24.943V71.401z"/>
		<path fill-opacity="0.07" d="M25.262,71.082V47.436h-6.261v-9.151h6.261v-6.953c0-5.205,3.283-11.281,12.539-11.281
			c3.431,0,6.019,0.331,6.042,0.333l0.286,0.038l-0.219,8.551l-0.313-0.003c-0.025,0-2.633-0.025-5.438-0.025
			c-2.762,0-3.248,1.11-3.248,3.443v5.898h9.269l-0.435,9.151h-8.834v23.647h-9.65V71.082z"/>
		<path fill="#FFFFFF" d="M43.443,47.117h-8.848v23.647h-9.015V47.117h-6.262v-8.514h6.262c0,0,0-3.489,0-7.272
			c0-5.714,3.697-10.962,12.219-10.962c3.451,0,6.005,0.33,6.005,0.33l-0.203,7.951c0,0-2.603-0.025-5.44-0.025
			c-3.072,0-3.564,1.414-3.564,3.762c0,0.29,0,0.392,0,0.397c0,0.659,0,2.257,0,5.819h9.25L43.443,47.117z"/>
		<ellipse opacity="0.4" fill="#FFFFFF" stroke="#000000" stroke-miterlimit="10" cx="59.125" cy="37" rx="7.125" ry="7"/>
		<ellipse opacity="0.4" fill="#FFFFFF" stroke="#000000" stroke-miterlimit="10" cx="59.125" cy="37" rx="4.125" ry="3.875"/>
	</g>
	<g>
		<path fill="#FFFFFF" stroke="#000000" stroke-miterlimit="10" d="M76.653,42.731c-0.773,0.285-1.173,1.223-0.869,2.043
			l0.559,1.516c0.21,0.567-0.044,1.164-0.58,1.362c-0.477,0.176-0.95-0.009-1.197-0.492c0,0,0,0-0.06,0.022l-1.351-3.662
			c-0.303-0.82-1.216-1.272-1.989-0.986c-0.774,0.285-1.173,1.221-0.87,2.042l1.281,3.473c0.21,0.567-0.044,1.164-0.581,1.362
			c-0.535,0.197-1.115-0.091-1.325-0.658l-1.654-4.483c-0.304-0.821-1.215-1.273-1.989-0.987c-0.774,0.285-1.174,1.222-0.87,2.043
			l1.654,4.482c0.21,0.568-0.044,1.164-0.58,1.362s-1.116-0.091-1.325-0.659l-4.591-12.438c-0.304-0.82-1.216-1.273-1.989-0.987
			c-0.774,0.286-1.174,1.222-0.87,2.042l6.059,16.416c0.21,0.568-0.045,1.164-0.581,1.361c-0.535,0.198-1.115-0.09-1.326-0.658
			l-0.652-1.768c-2.732-1.717-4.214-0.597-4.778,0.258c-0.624,0.875,0.606,1.641,0.606,1.641l11.827,9.121l-0.023-0.063
			c0.826,0.771,2.036,1.113,3.107,0.718l7.506-2.77c1.251-0.462,1.997-1.741,1.911-3.073l0,0l0.063-6.982
			c0.023-1.586-0.673-3.839-0.673-3.839l-2.051-5.557C78.279,42.921,77.428,42.446,76.653,42.731z"/>
	</g>
	<g opacity="0.4">
		<path fill="#FFFFFF" d="M80.4,48.665c0,0,0.696,2.254,0.674,3.842l-0.063,6.98l0,0c0.085,1.332-0.66,2.612-1.911,3.074
			l-7.506,2.771c-1.071,0.396-2.259,0.115-3.108-0.72l0.024,0.064l-11.805-9.059c0,0-0.271-0.187-0.508-0.459
			c0.031,0.635,0.741,1.091,0.741,1.091l11.827,9.12l-0.023-0.063c0.826,0.771,2.036,1.113,3.107,0.718l7.506-2.771
			c1.251-0.462,1.997-1.741,1.911-3.072l0,0L81.33,53.2c0.023-1.586-0.674-3.84-0.674-3.84l-2.05-5.556
			c-0.023-0.063-0.047-0.126-0.07-0.19L80.4,48.665z"/>
	</g>
</g>
</svg>
