<?xml version="1.0" encoding="utf-8"?>
<!-- Generator: Adobe Illustrator 16.0.0, SVG Export Plug-In . SVG Version: 6.00 Build 0)  -->
<!DOCTYPE svg PUBLIC "-//W3C//DTD SVG 1.1//EN" "http://www.w3.org/Graphics/SVG/1.1/DTD/svg11.dtd" [
	<!ENTITY ns_extend "http://ns.adobe.com/Extensibility/1.0/">
	<!ENTITY ns_ai "http://ns.adobe.com/AdobeIllustrator/10.0/">
	<!ENTITY ns_graphs "http://ns.adobe.com/Graphs/1.0/">
	<!ENTITY ns_vars "http://ns.adobe.com/Variables/1.0/">
	<!ENTITY ns_imrep "http://ns.adobe.com/ImageReplacement/1.0/">
	<!ENTITY ns_sfw "http://ns.adobe.com/SaveForWeb/1.0/">
	<!ENTITY ns_custom "http://ns.adobe.com/GenericCustomNamespace/1.0/">
	<!ENTITY ns_adobe_xpath "http://ns.adobe.com/XPath/1.0/">
]>
<svg version="1.1" id="Layer_1" xmlns:x="&ns_extend;" xmlns:i="&ns_ai;" xmlns:graph="&ns_graphs;"
	 xmlns="http://www.w3.org/2000/svg" xmlns:xlink="http://www.w3.org/1999/xlink" x="0px" y="0px" width="64px" height="64px"
	 viewBox="0 0 64 64" enable-background="new 0 0 64 64" xml:space="preserve">
<metadata>
	<sfw  xmlns="&ns_sfw;">
		<slices></slices>
		<sliceSourceBounds  width="63.133" height="57.682" y="-59.565" x="-0.002" bottomLeftOrigin="true"></sliceSourceBounds>
	</sfw>
</metadata>
<path fill="#010101" fill-opacity="0.3" d="M34.264,1.883C19.56,1.883,7.63,13.735,7.519,28.4H2.882
	c-0.277-0.002-0.533,0.141-0.67,0.384c-0.067,0.121-0.101,0.248-0.101,0.385s0.036,0.266,0.105,0.388l7.705,13.152
	c0.135,0.234,0.391,0.381,0.661,0.381c0.279,0.003,0.534-0.138,0.673-0.381l7.699-13.152c0.066-0.122,0.103-0.25,0.103-0.388
	c0-0.133-0.034-0.26-0.102-0.382c-0.138-0.234-0.393-0.386-0.668-0.386h-5.036c0.119-11.48,9.493-20.79,21.012-20.79
	c11.595,0,21.025,9.422,21.025,21.001c0,11.58-9.431,21.001-21.025,21.001c-4.387,0-8.461-1.356-11.837-3.657h-0.002
	c-0.015-0.012-0.027-0.017-0.042-0.028c-0.002,0-0.002,0-0.004,0c-1.357-1.122-2.2,0.123-2.216,0.152l-1.692,2.498
	c0,0.004-0.586,1.002,0.179,1.687c4.395,3.175,9.773,5.079,15.606,5.079c14.78,0,26.758-11.969,26.758-26.731
	S49.044,1.883,34.264,1.883z"/>
<path fill="#010101" fill-opacity="0.15" d="M34.264,59.565c-6.058,0-11.887-1.893-16.848-5.479
	c-0.06-0.046-0.117-0.091-0.171-0.139c-1.357-1.214-1.302-2.999-0.643-4.238c0.036-0.07,0.079-0.138,0.123-0.204l1.692-2.502
	c0.25-0.445,1.294-1.547,2.863-1.547c0.57,0,1.431,0.153,2.344,0.87c3.154,2.149,6.834,3.286,10.64,3.286
	c10.428,0,18.912-8.474,18.912-18.89c0-10.416-8.487-18.89-18.912-18.89c-9.597,0-17.599,7.259-18.757,16.568h2.779
	c1.02,0,1.974,0.547,2.492,1.427c0.266,0.478,0.393,0.951,0.393,1.454c0,0.49-0.129,0.981-0.373,1.418l-7.717,13.185
	c-0.516,0.883-1.468,1.427-2.484,1.427c-1.036,0-1.991-0.549-2.502-1.437l-7.7-13.143c-0.262-0.454-0.396-0.951-0.396-1.456
	c0-0.499,0.131-0.994,0.379-1.426c0.513-0.895,1.47-1.449,2.501-1.449h2.623C6.69,13.598,19.182,1.883,34.264,1.883
	c15.92,0,28.867,12.936,28.867,28.839C63.131,46.627,50.184,59.565,34.264,59.565L34.264,59.565z"/>
<path fill="#FFFFFF" d="M34.264,3.995C19.56,3.995,7.63,15.846,7.519,30.511H2.882c-0.277-0.001-0.533,0.141-0.67,0.385
	c-0.067,0.122-0.101,0.248-0.101,0.386c0,0.136,0.036,0.264,0.105,0.387l7.705,13.151c0.135,0.234,0.391,0.382,0.661,0.382
	c0.279,0.003,0.534-0.14,0.673-0.382l7.699-13.151c0.066-0.124,0.103-0.251,0.103-0.387c0-0.134-0.034-0.26-0.102-0.384
	c-0.138-0.234-0.393-0.387-0.668-0.387h-5.036c0.119-11.479,9.493-20.79,21.012-20.79c11.595,0,21.025,9.422,21.025,21.001
	c0,11.58-9.431,21-21.025,21c-4.387,0-8.461-1.355-11.837-3.656h-0.002c-0.015-0.013-0.027-0.017-0.042-0.029
	c-0.002,0-0.002,0-0.004,0c-1.357-1.121-2.2,0.124-2.216,0.153l-1.692,2.498c0,0.004-0.586,1.002,0.179,1.686
	c4.395,3.176,9.773,5.08,15.606,5.08c14.78,0,26.758-11.97,26.758-26.732C61.014,15.959,49.044,3.995,34.264,3.995z"/>
</svg>
