<?xml version="1.0" encoding="utf-8"?>
<!-- Generator: Adobe Illustrator 16.0.0, SVG Export Plug-In . SVG Version: 6.00 Build 0)  -->
<!DOCTYPE svg PUBLIC "-//W3C//DTD SVG 1.1//EN" "http://www.w3.org/Graphics/SVG/1.1/DTD/svg11.dtd" [
	<!ENTITY ns_extend "http://ns.adobe.com/Extensibility/1.0/">
	<!ENTITY ns_ai "http://ns.adobe.com/AdobeIllustrator/10.0/">
	<!ENTITY ns_graphs "http://ns.adobe.com/Graphs/1.0/">
	<!ENTITY ns_vars "http://ns.adobe.com/Variables/1.0/">
	<!ENTITY ns_imrep "http://ns.adobe.com/ImageReplacement/1.0/">
	<!ENTITY ns_sfw "http://ns.adobe.com/SaveForWeb/1.0/">
	<!ENTITY ns_custom "http://ns.adobe.com/GenericCustomNamespace/1.0/">
	<!ENTITY ns_adobe_xpath "http://ns.adobe.com/XPath/1.0/">
]>
<svg version="1.1" id="Layer_1" xmlns:x="&ns_extend;" xmlns:i="&ns_ai;" xmlns:graph="&ns_graphs;"
	 xmlns="http://www.w3.org/2000/svg" xmlns:xlink="http://www.w3.org/1999/xlink" x="0px" y="0px" width="30px" height="30px"
	 viewBox="0 0 30 30" enable-background="new 0 0 30 30" xml:space="preserve">
<metadata>
	<sfw  xmlns="&ns_sfw;">
		<slices></slices>
		<sliceSourceBounds  width="30" height="30" bottomLeftOrigin="true" x="664.5" y="369.5"></sliceSourceBounds>
	</sfw>
</metadata>
<path fill-opacity="0.15" d="M5,25c-1.654,0-3-1.346-3-3s1.346-3,3-3h20c1.654,0,3,1.346,3,3s-1.346,3-3,3H5z M5,18
	c-1.654,0-3-1.346-3-3c0-1.654,1.346-3,3-3h20c1.654,0,3,1.346,3,3c0,1.654-1.346,3-3,3H5z M5,11c-1.654,0-3-1.346-3-3s1.346-3,3-3
	h20c1.654,0,3,1.346,3,3s-1.346,3-3,3H5z"/>
<path fill-opacity="0.3" d="M5,9h20c1.1,0,2-0.9,2-2s-0.9-2-2-2H5C3.9,5,3,5.9,3,7S3.9,9,5,9z M25,12H5c-1.1,0-2,0.901-2,2
	s0.9,2,2,2h20c1.1,0,2-0.9,2-2S26.1,12,25,12z M25,19H5c-1.1,0-2,0.9-2,2s0.9,2,2,2h20c1.1,0,2-0.9,2-2S26.1,19,25,19z"/>
<path fill="#FFFFFF" d="M5,10h20c1.1,0,2-0.9,2-2s-0.9-2-2-2H5C3.9,6,3,6.9,3,8S3.9,10,5,10z M25,13H5c-1.1,0-2,0.9-2,2
	c0,1.1,0.9,2,2,2h20c1.1,0,2-0.9,2-2C27,13.901,26.1,13,25,13z M25,20H5c-1.1,0-2,0.9-2,2s0.9,2,2,2h20c1.1,0,2-0.9,2-2
	S26.1,20,25,20z"/>
<rect fill="none" width="30" height="30"/>
</svg>
